<svg xmlns="http://www.w3.org/2000/svg" width="256" height="256" viewBox="0 0 100 100"><rect width="100" height="100" rx="20" fill="#7d6ee7"></rect><path fill="#fff" d="M9.63 56.72L9.63 56.72Q11.44 56.72 12.38 55.90Q13.31 55.08 13.31 53.78L13.31 53.78Q13.31 52.65 12.59 51.94Q11.88 51.24 10.34 50.78L10.34 50.78L7.99 50.08Q6.26 49.57 5.27 48.57Q4.29 47.57 4.29 45.87L4.29 45.87Q4.29 44.84 4.68 44.02Q5.07 43.20 5.80 42.63Q6.53 42.06 7.54 41.75Q8.55 41.44 9.82 41.44L9.82 41.44Q10.90 41.44 11.84 41.62Q12.77 41.79 13.46 42.10Q14.14 42.41 14.52 42.79Q14.90 43.17 14.90 43.57L14.90 43.57Q14.90 43.95 14.71 44.22Q14.52 44.49 14.22 44.65L14.22 44.65Q13.52 44.11 12.40 43.71Q11.28 43.30 9.90 43.30L9.90 43.30Q8.31 43.30 7.41 43.98Q6.50 44.65 6.50 45.87L6.50 45.87Q6.50 46.81 7.15 47.41Q7.80 48.00 9.31 48.43L9.31 48.43L10.96 48.92Q13.09 49.54 14.32 50.66Q15.55 51.78 15.55 53.78L15.55 53.78Q15.55 55.91 14.01 57.24Q12.47 58.56 9.63 58.56L9.63 58.56Q8.39 58.56 7.38 58.34Q6.37 58.13 5.65 57.78Q4.94 57.42 4.55 57.01Q4.15 56.59 4.15 56.18L4.15 56.18Q4.15 55.72 4.44 55.41Q4.72 55.10 5.10 54.97L5.10 54.97Q5.40 55.27 5.83 55.58Q6.26 55.89 6.83 56.14Q7.39 56.40 8.10 56.56Q8.80 56.72 9.63 56.72ZM21.43 52.00L21.43 58.15Q21.27 58.21 21.00 58.28Q20.73 58.34 20.41 58.34L20.41 58.34Q19.22 58.34 19.22 57.34L19.22 57.34L19.22 42.98Q19.22 42.55 19.44 42.32Q19.65 42.09 20.11 41.95L20.11 41.95Q20.89 41.71 22.04 41.60Q23.19 41.49 24.27 41.49L24.27 41.49Q27.67 41.49 29.33 42.86Q30.99 44.22 30.99 46.73L30.99 46.73Q30.99 48.60 30.03 49.86Q29.07 51.13 27.13 51.67L27.13 51.67Q27.81 52.54 28.48 53.40Q29.16 54.27 29.76 55.04Q30.37 55.80 30.84 56.43Q31.32 57.05 31.59 57.40L31.59 57.40Q31.48 57.86 31.11 58.13Q30.75 58.40 30.37 58.40L30.37 58.40Q29.91 58.40 29.61 58.18Q29.32 57.96 28.99 57.51L28.99 57.51L25.05 52.00L21.43 52.00ZM21.41 50.16L24.51 50.16Q26.51 50.16 27.64 49.30Q28.78 48.43 28.78 46.73L28.78 46.73Q28.78 45.03 27.59 44.18Q26.40 43.33 24.19 43.33L24.19 43.33Q23.46 43.33 22.72 43.40Q21.97 43.47 21.41 43.57L21.41 43.57L21.41 50.16ZM45.49 57.42L44.28 53.83L37.04 53.83Q36.85 54.37 36.63 55.01Q36.42 55.64 36.22 56.25Q36.01 56.86 35.82 57.38Q35.64 57.91 35.53 58.26L35.53 58.26Q35.15 58.42 34.64 58.42L34.64 58.42Q34.20 58.42 33.87 58.19Q33.53 57.96 33.53 57.45L33.53 57.45Q33.53 57.21 33.61 56.95Q33.69 56.70 33.80 56.40L33.80 56.40Q34.20 55.27 34.84 53.48Q35.47 51.70 36.22 49.69Q36.96 47.68 37.73 45.64Q38.50 43.60 39.15 41.98L39.15 41.98Q39.36 41.87 39.79 41.77Q40.23 41.66 40.69 41.66L40.69 41.66Q41.23 41.66 41.72 41.82Q42.22 41.98 42.36 42.36L42.36 42.36Q43.01 43.92 43.75 45.94Q44.49 47.95 45.25 50.05Q46.00 52.16 46.69 54.20Q47.38 56.24 47.92 57.88L47.92 57.88Q47.70 58.13 47.41 58.28Q47.11 58.42 46.73 58.42L46.73 58.42Q46.22 58.42 45.95 58.19Q45.68 57.96 45.49 57.42L45.49 57.42ZM40.77 43.49L40.66 43.49Q40.36 44.30 39.98 45.34Q39.60 46.38 39.20 47.52Q38.80 48.65 38.39 49.81Q37.98 50.97 37.63 52.02L37.63 52.02L43.71 52.02Q43.30 50.81 42.87 49.58Q42.44 48.35 42.05 47.22Q41.66 46.09 41.32 45.13Q40.98 44.17 40.77 43.49L40.77 43.49ZM58.07 57.99L58.07 57.99Q57.94 58.13 57.56 58.23Q57.18 58.34 56.72 58.34L56.72 58.34Q56.21 58.34 55.80 58.19Q55.40 58.05 55.27 57.75L55.27 57.75Q54.91 57.05 54.44 55.94Q53.97 54.83 53.44 53.47Q52.92 52.11 52.36 50.59Q51.81 49.08 51.30 47.60Q50.78 46.11 50.32 44.72Q49.87 43.33 49.54 42.22L49.54 42.22Q49.70 42.01 50.03 41.82Q50.35 41.63 50.76 41.63L50.76 41.63Q51.27 41.63 51.51 41.87Q51.76 42.12 51.92 42.60L51.92 42.60Q53.13 46.14 54.24 49.43Q55.35 52.73 56.67 56.13L56.67 56.13L56.78 56.13Q57.37 54.59 58.01 52.85Q58.64 51.11 59.25 49.26Q59.86 47.41 60.44 45.52Q61.02 43.63 61.48 41.82L61.48 41.82Q61.83 41.63 62.39 41.63L62.39 41.63Q62.88 41.63 63.18 41.87Q63.47 42.12 63.47 42.60L63.47 42.60Q63.47 43.01 63.16 44.13Q62.85 45.25 62.37 46.73Q61.88 48.22 61.27 49.92Q60.66 51.62 60.07 53.19Q59.48 54.75 58.94 56.05Q58.40 57.34 58.07 57.99ZM77.22 57.42L76.00 53.83L68.76 53.83Q68.58 54.37 68.36 55.01Q68.14 55.64 67.94 56.25Q67.74 56.86 67.55 57.38Q67.36 57.91 67.25 58.26L67.25 58.26Q66.88 58.42 66.36 58.42L66.36 58.42Q65.93 58.42 65.59 58.19Q65.25 57.96 65.25 57.45L65.25 57.45Q65.25 57.21 65.34 56.95Q65.42 56.70 65.52 56.40L65.52 56.40Q65.93 55.27 66.56 53.48Q67.20 51.70 67.94 49.69Q68.68 47.68 69.45 45.64Q70.22 43.60 70.87 41.98L70.87 41.98Q71.09 41.87 71.52 41.77Q71.95 41.66 72.41 41.66L72.41 41.66Q72.95 41.66 73.45 41.82Q73.95 41.98 74.08 42.36L74.08 42.36Q74.73 43.92 75.47 45.94Q76.22 47.95 76.97 50.05Q77.73 52.16 78.42 54.20Q79.11 56.24 79.65 57.88L79.65 57.88Q79.43 58.13 79.13 58.28Q78.84 58.42 78.46 58.42L78.46 58.42Q77.94 58.42 77.67 58.19Q77.40 57.96 77.22 57.42L77.22 57.42ZM72.49 43.49L72.38 43.49Q72.09 44.30 71.71 45.34Q71.33 46.38 70.92 47.52Q70.52 48.65 70.11 49.81Q69.71 50.97 69.36 52.02L69.36 52.02L75.43 52.02Q75.03 50.81 74.60 49.58Q74.16 48.35 73.77 47.22Q73.38 46.09 73.04 45.13Q72.71 44.17 72.49 43.49L72.49 43.49ZM84.02 58.34L84.02 58.34Q82.83 58.34 82.83 57.37L82.83 57.37L82.83 42.12Q83.32 41.63 84.29 41.63L84.29 41.63Q84.94 41.63 85.40 41.89Q85.86 42.14 86.23 42.82L86.23 42.82L91.39 51.46Q91.71 52.02 92.07 52.66Q92.42 53.29 92.74 53.93Q93.06 54.56 93.35 55.12Q93.63 55.67 93.82 56.05L93.82 56.05L93.93 56.02Q93.71 53.83 93.67 51.62Q93.63 49.41 93.63 47.30L93.63 47.30L93.63 41.85Q93.79 41.79 94.06 41.72Q94.33 41.66 94.66 41.66L94.66 41.66Q95.85 41.66 95.85 42.63L95.85 42.63L95.85 57.91Q95.60 58.13 95.22 58.25Q94.85 58.37 94.39 58.37L94.39 58.37Q93.74 58.37 93.28 58.11Q92.82 57.86 92.44 57.18L92.44 57.18L87.31 48.54Q86.99 48.00 86.63 47.35Q86.26 46.71 85.92 46.09Q85.59 45.46 85.30 44.90Q85.02 44.33 84.83 43.95L84.83 43.95L84.72 43.98Q84.86 45.27 84.94 46.94Q85.02 48.60 85.02 50.08L85.02 50.08L85.02 58.15Q84.88 58.21 84.60 58.28Q84.32 58.34 84.02 58.34Z"></path></svg>